<svg class="main-svg" xmlns="http://www.w3.org/2000/svg" xmlns:xlink="http://www.w3.org/1999/xlink" width="700" height="450" style="" viewBox="0 0 700 450"><rect x="0" y="0" width="700" height="450" style="fill: rgb(255, 255, 255); fill-opacity: 1;"/><defs id="defs-7e9b4a"><g class="clips"><clipPath id="clip7e9b4axyplot" class="plotclip"><rect width="521" height="330"/></clipPath><clipPath class="axesclip" id="clip7e9b4ax"><rect x="60" y="0" width="521" height="450"/></clipPath><clipPath class="axesclip" id="clip7e9b4ay"><rect x="0" y="60" width="700" height="330"/></clipPath><clipPath class="axesclip" id="clip7e9b4axy"><rect x="60" y="60" width="521" height="330"/></clipPath></g><g class="gradients"/></defs><g class="bglayer"/><g class="layer-below"><g class="imagelayer"/><g class="shapelayer"/></g><g class="cartesianlayer"><g class="subplot xy"><g class="layer-subplot"><g class="shapelayer"/><g class="imagelayer"/></g><g class="gridlayer"><g class="x"><path class="xgrid crisp" transform="translate(147.12,0)" d="M0,60v330" style="stroke: rgb(238, 238, 238); stroke-opacity: 1; stroke-width: 1px;"/><path class="xgrid crisp" transform="translate(234.25,0)" d="M0,60v330" style="stroke: rgb(238, 238, 238); stroke-opacity: 1; stroke-width: 1px;"/><path class="xgrid crisp" transform="translate(321.37,0)" d="M0,60v330" style="stroke: rgb(238, 238, 238); stroke-opacity: 1; stroke-width: 1px;"/><path class="xgrid crisp" transform="translate(408.49,0)" d="M0,60v330" style="stroke: rgb(238, 238, 238); stroke-opacity: 1; stroke-width: 1px;"/><path class="xgrid crisp" transform="translate(495.62,0)" d="M0,60v330" style="stroke: rgb(238, 238, 238); stroke-opacity: 1; stroke-width: 1px;"/></g><g class="y"><path class="ygrid crisp" transform="translate(0,367.52)" d="M60,0h521" style="stroke: rgb(238, 238, 238); stroke-opacity: 1; stroke-width: 1px;"/><path class="ygrid crisp" transform="translate(0,319.33)" d="M60,0h521" style="stroke: rgb(238, 238, 238); stroke-opacity: 1; stroke-width: 1px;"/><path class="ygrid crisp" transform="translate(0,271.14)" d="M60,0h521" style="stroke: rgb(238, 238, 238); stroke-opacity: 1; stroke-width: 1px;"/><path class="ygrid crisp" transform="translate(0,222.95)" d="M60,0h521" style="stroke: rgb(238, 238, 238); stroke-opacity: 1; stroke-width: 1px;"/><path class="ygrid crisp" transform="translate(0,174.76)" d="M60,0h521" style="stroke: rgb(238, 238, 238); stroke-opacity: 1; stroke-width: 1px;"/><path class="ygrid crisp" transform="translate(0,126.57)" d="M60,0h521" style="stroke: rgb(238, 238, 238); stroke-opacity: 1; stroke-width: 1px;"/><path class="ygrid crisp" transform="translate(0,78.38)" d="M60,0h521" style="stroke: rgb(238, 238, 238); stroke-opacity: 1; stroke-width: 1px;"/></g></g><g class="zerolinelayer"><path class="xzl zl crisp" transform="translate(60,0)" d="M0,60v330" style="stroke: rgb(68, 68, 68); stroke-opacity: 1; stroke-width: 1px;"/></g><path class="xlines-below"/><path class="ylines-below"/><g class="overlines-below"/><g class="xaxislayer-below"/><g class="yaxislayer-below"/><g class="overaxes-below"/><g class="plot" transform="translate(60, 60)" clip-path="url('#clip7e9b4axyplot')"><g class="scatterlayer mlayer"><g class="trace scatter tracecd4602" style="stroke-miterlimit: 2; opacity: 1;"><g class="fills"/><g class="errorbars"/><g class="lines"><path class="js-line" d="M0,17.88L3.48,30.32L5.23,35.2L10.45,49.64L12.2,55.69L15.68,67.09L17.42,71.34L24.39,85.47L26.14,88.61L33.11,99.7L34.85,102.42L38.33,106.51L40.08,108.62L41.82,111.91L43.56,113.34L47.05,116.37L48.79,119.5L52.27,122.66L54.02,125.42L55.76,125.67L57.5,129.16L62.73,132.53L64.47,135.16L69.7,138.52L71.44,141.34L76.67,144.99L78.41,146.06L83.64,150.34L85.38,151.16L87.12,152.88L88.87,151.76L90.61,154.79L92.35,155.5L94.09,155.73L95.84,156.84L99.32,160.05L101.06,160.03L102.81,161.33L104.55,164.31L106.29,162.03L108.03,164.39L109.78,164.72L111.52,166.49L115,169.49L116.75,167.7L120.23,171.26L121.97,169.84L123.72,170.99L125.46,174.49L127.2,172.42L128.94,175.43L130.69,176.6L132.43,176L134.17,177.68L135.91,177.3L137.66,178.46L139.4,178.71L142.88,181.48L144.63,180.51L146.37,181.57L148.11,183.89L149.85,183.5L151.6,186.01L153.34,186.42L155.08,185.6L156.82,188.98L158.57,190.58L160.31,189.34L162.05,189.21L163.79,188.07L165.54,192.88L167.28,195.47L169.02,192.92L170.76,193.68L172.51,196.27L174.25,196.32L175.99,197.26L177.73,198.76L179.47,202.11L181.22,202.24L182.96,203.8L186.44,203.19L188.19,205.22L189.93,207.4L191.67,207.27L193.41,205.58L195.16,210.82L196.9,210.51L198.64,213.74L200.38,215.14L202.13,214.51L203.87,217.12L205.61,215.09L210.84,219.56L212.58,218.58L216.07,219.94L217.81,224.1L219.55,223.01L221.29,223.35L223.04,230.09L224.78,228.5L228.26,230.58L230.01,229.64L233.49,234.55L235.23,233.87L236.98,235.39L238.72,231.84L240.46,234.55L242.2,241.79L243.95,237.3L245.69,238.09L249.17,238.84L250.92,243.05L252.66,242.7L254.4,244.92L257.89,245.19L259.63,242.45L261.37,245.86L263.11,247L266.6,245.95L268.34,248.25L270.08,250.4L271.83,245.08L273.57,250.49L275.31,249.02L277.05,253.49L278.8,250.34L280.54,249.86L282.28,253.1L284.02,256.18L285.77,261.57L287.51,254.12L289.25,250.27L290.99,256.97L292.74,257.16L294.48,263.37L296.22,261.06L297.96,258.17L299.71,263.74L301.45,257.93L303.19,264.49L304.93,253.74L306.68,263.74L308.42,267.88L310.16,261.41L311.9,260.84L313.65,262.79L315.39,262.58L317.13,267.74L320.62,267.47L322.36,265.81L325.84,271.28L327.59,270.17L331.07,270.32L332.81,271.67L334.56,273.68L336.3,276.88L338.04,272.28L339.78,277.1L341.53,278.04L343.27,275.24L345.01,276.54L346.75,275.77L348.49,273.44L350.24,276.36L351.98,282.71L353.72,283.32L355.46,275.94L357.21,281.43L358.95,283.7L360.69,284.59L362.43,279.52L364.18,276.98L365.92,279.77L367.66,280.4L369.4,276.51L371.15,280.73L372.89,280.79L374.63,283.32L376.37,286.99L378.12,284.85L379.86,279.23L381.6,286.75L383.34,286.08L385.09,284L386.83,284.87L388.57,286.95L390.31,281.6L392.06,286.2L393.8,286.66L395.54,291.17L399.03,285.47L400.77,285.79L402.51,287L404.25,289.75L407.74,290.74L409.48,293.11L411.22,292.31L412.97,286.93L414.71,296.21L416.45,291.5L418.19,290.47L419.94,293.78L421.68,292.66L423.42,295.07L425.16,295.27L426.91,293.52L428.65,295.27L430.39,294.48L433.88,298.5L435.62,299.13L437.36,294.28L439.1,295.58L442.59,305.21L444.33,300.53L446.07,302.45L447.82,305.6L449.56,303.74L451.3,298.24L453.04,306.91L454.79,301.25L456.53,309.11L458.27,303.13L460.01,300.8L461.76,307.74L463.5,308.27L465.24,305.08L466.98,304.57L468.73,306.38L470.47,307.68L472.21,307.85L473.95,311.23L475.7,305.52L477.44,303.98L479.18,307.18L480.92,306.8L482.67,308.87L484.41,308.48L486.15,310.36L487.89,310.05L489.64,307.99L491.38,302.5L493.12,308.08L494.86,310.91L496.61,304.87L498.35,308.44L500.09,307.37L501.83,305.55L503.58,309.48L505.32,310.37L507.06,307.88L508.8,308.01L510.55,307.13L512.29,310.49L514.03,311.71L515.77,313.5L517.52,311.94L519.26,308.88L521,310.74" style="vector-effect: non-scaling-stroke; fill: none; stroke: rgb(31, 119, 180); stroke-opacity: 1; stroke-width: 2px; opacity: 1;"/></g><g class="points"/><g class="text"/></g><g class="trace scatter tracec47625" style="stroke-miterlimit: 2; opacity: 1;"><g class="fills"/><g class="errorbars"/><g class="lines"><path class="js-line" d="M0,16.5L3.48,30.66L5.23,35.74L10.45,48.49L12.2,56.03L15.68,66.22L17.42,70.51L24.39,83.42L26.14,84.52L29.62,90.85L31.36,94.57L34.85,97.85L36.59,101.62L41.82,108.01L43.56,108.36L45.3,111.86L47.05,113.27L54.02,120.54L55.76,121.66L64.47,129.43L66.21,129.33L67.96,131.26L69.7,132.06L71.44,134.32L73.18,134.97L76.67,135.23L78.41,138.19L81.9,138.82L83.64,139.78L85.38,140.42L87.12,141.86L88.87,141.95L90.61,142.95L92.35,143.38L94.09,146.03L95.84,145.21L97.58,145.98L101.06,147.55L102.81,148.1L104.55,148.87L106.29,150.72L108.03,149.55L109.78,150.99L111.52,149.32L113.26,150.94L115,151.82L116.75,151.27L118.49,151.23L120.23,152.59L123.72,151.94L125.46,152.8L128.94,153.57L130.69,154.49L132.43,156.55L134.17,154.62L137.66,152.83L139.4,156.22L142.88,156.36L144.63,157.93L148.11,157.65L149.85,154.02L151.6,158.76L153.34,156.1L155.08,158.01L156.82,158.25L162.05,155.16L163.79,157.56L165.54,160.05L167.28,154.55L169.02,157.76L170.76,155.98L172.51,155.39L174.25,155.96L175.99,157.41L177.73,160.59L181.22,152.67L182.96,152.25L184.7,157.76L186.44,160.67L191.67,152.86L193.41,157.92L195.16,151.84L196.9,150.35L198.64,152.75L200.38,152.7L202.13,156.7L203.87,147.34L207.35,157.22L209.1,154.31L210.84,151.66L212.58,154.16L214.32,154.7L216.07,152.24L219.55,155.3L221.29,146.81L223.04,158.64L224.78,152.24L226.52,150.83L228.26,153.97L230.01,156.24L231.75,153.94L233.49,149.46L235.23,153.44L236.98,161.04L238.72,158.34L240.46,154.35L242.2,154.35L243.95,157.48L245.69,163.61L249.17,154.98L250.92,151.3L252.66,151.71L254.4,145.81L256.14,154.17L257.89,154.86L259.63,155.29L261.37,148.6L263.11,150.65L264.86,146.64L266.6,146.35L268.34,148.92L270.08,157.46L271.83,153.37L273.57,158.67L275.31,158.53L277.05,147.31L278.8,165.89L280.54,164.88L282.28,149.71L284.02,151.11L285.77,150.21L287.51,157.87L289.25,155.31L290.99,156.59L292.74,155.37L294.48,157.08L296.22,163.05L297.96,153.79L299.71,156.74L301.45,147.69L303.19,155.3L304.93,160.4L306.68,154.32L308.42,153.86L310.16,150.5L311.9,155.4L313.65,147.04L317.13,153.04L318.87,150.54L320.62,160.81L322.36,146.97L324.1,143.83L325.84,147.37L327.59,144.41L329.33,154.76L332.81,153.18L334.56,158.68L336.3,164.49L338.04,148.59L339.78,156.45L341.53,149.88L343.27,137.62L345.01,140.83L346.75,163.23L348.49,144.13L353.72,164.15L355.46,160.41L357.21,144.92L358.95,158.02L360.69,141.1L362.43,166.06L364.18,154.37L365.92,157.36L367.66,145.28L369.4,151.96L371.15,157.29L372.89,165.9L374.63,148.28L376.37,146.83L378.12,152.22L379.86,145.44L381.6,148.82L383.34,149.58L385.09,155.21L386.83,147.41L388.57,159.03L390.31,163.88L392.06,150.46L393.8,156.82L395.54,133L397.28,143.13L399.03,148.06L400.77,148.07L402.51,143.98L404.25,150.25L406,161.68L407.74,161.12L411.22,144.53L412.97,146.34L414.71,151.15L416.45,148.81L418.19,137.57L419.94,154.07L421.68,138.03L423.42,149.44L426.91,146.62L428.65,154.58L430.39,158.42L432.13,148.94L433.88,148.54L435.62,155.23L437.36,150.82L439.1,152.07L440.85,148.43L442.59,149.17L444.33,153.91L446.07,145.96L447.82,153.33L449.56,150.72L451.3,154.61L453.04,151.68L454.79,155.39L456.53,153.53L458.27,148.55L460.01,150.91L463.5,146.87L465.24,146.09L466.98,148.05L468.73,147.22L470.47,152.96L472.21,150.09L473.95,156.86L475.7,143.38L477.44,153.72L479.18,148.18L482.67,152.21L484.41,148.6L486.15,148.65L487.89,150.1L489.64,154.74L491.38,145.03L493.12,151.85L494.86,149.66L496.61,151.48L498.35,152L500.09,143.97L501.83,154.03L503.58,150.83L505.32,150.05L507.06,152.78L508.8,152.49L510.55,148.72L512.29,157.31L514.03,148.16L515.77,154.81L517.52,152.14L519.26,152.29L521,144.07" style="vector-effect: non-scaling-stroke; fill: none; stroke: rgb(255, 127, 14); stroke-opacity: 1; stroke-width: 2px; opacity: 1;"/></g><g class="points"/><g class="text"/></g><g class="trace scatter traceb1f495" style="stroke-miterlimit: 2; opacity: 1;"><g class="fills"/><g class="errorbars"/><g class="lines"><path class="js-line" d="M0,18.74L3.48,33.71L5.23,39.14L10.45,54.34L12.2,64.63L15.68,77.41L17.42,82.33L20.91,88.78L22.65,94.73L26.14,98.35L27.88,103.25L29.62,105.76L31.36,110.44L33.11,113L34.85,112.9L36.59,117.57L38.33,119.37L40.08,121.14L41.82,124.83L43.56,124.81L45.3,129L47.05,129.84L48.79,132.02L50.53,134.13L52.27,137.84L54.02,138.21L55.76,140.16L57.5,141.09L59.24,143.33L60.99,143.86L62.73,145.59L64.47,147.86L66.21,146.72L67.96,150.18L69.7,150.56L71.44,153.92L73.18,154.54L74.93,153.94L76.67,154.28L78.41,157.94L80.15,158.26L88.87,162.92L90.61,163.43L92.35,164.59L94.09,167.19L95.84,166.31L97.58,166.66L99.32,167.27L101.06,166.71L104.55,169.45L106.29,171.35L108.03,169.92L109.78,171.33L115,171.56L116.75,172.78L118.49,173.06L120.23,174.26L123.72,173.25L125.46,176.22L128.94,175.42L130.69,175.28L132.43,176.09L134.17,173.81L135.91,175.95L137.66,173.91L139.4,176.26L141.14,175.98L144.63,174.47L146.37,175.8L148.11,179.26L149.85,175.67L151.6,177.08L153.34,175.87L155.08,179.41L156.82,176.78L158.57,174.93L160.31,177.23L162.05,171L163.79,175.79L165.54,179.32L167.28,168.6L169.02,176.09L170.76,177.46L172.51,171.4L174.25,170.6L175.99,170.47L177.73,174.71L179.47,175.55L181.22,164.61L182.96,167.87L184.7,173.98L186.44,176.57L188.19,174.63L189.93,164.97L191.67,170.05L193.41,170.97L195.16,166.92L196.9,158L198.64,161.76L200.38,170.15L202.13,170.91L203.87,151.7L205.61,160.6L207.35,172.79L209.1,163.63L212.58,157.08L214.32,172.38L216.07,158.61L217.81,158.71L219.55,162.04L221.29,145.46L223.04,169.71L224.78,154.05L226.52,157.33L228.26,156.05L230.01,160.85L231.75,162.48L233.49,152.52L235.23,150.82L236.98,160.93L238.72,158.9L240.46,156.2L242.2,155.74L243.95,161.7L245.69,171.91L247.43,173.84L249.17,157.22L250.92,143.34L252.66,163.77L254.4,137.53L256.14,152.42L257.89,147.51L259.63,167.62L261.37,133.62L263.11,145.66L264.86,143.19L266.6,132.56L270.08,154.39L271.83,148.71L273.57,160.83L275.31,157.39L277.05,133.56L278.8,172.52L280.54,170.06L282.28,138.07L287.51,151.52L289.25,159.58L290.99,160.85L292.74,154.2L294.48,155.19L296.22,163.29L297.96,144.35L299.71,156.02L301.45,142.34L303.19,141.7L304.93,151.2L306.68,152.74L308.42,139.11L310.16,142.43L311.9,142.57L313.65,121.3L315.39,138.77L317.13,141.08L318.87,142.56L320.62,145.81L322.36,128.02L324.1,121.1L325.84,135.3L327.59,126.05L329.33,151.93L331.07,141.64L332.81,137.3L334.56,159.92L336.3,167.74L338.04,126.31L339.78,144.91L341.53,137.83L343.27,111.95L345.01,119L346.75,165.51L348.49,123.01L353.72,180.48L355.46,162.32L357.21,120.26L358.95,163.45L360.69,119.83L362.43,171.63L364.18,132.67L365.92,149.77L367.66,123.49L369.4,128.59L371.15,153.61L372.89,164.76L374.63,130.02L376.37,122.26L378.12,139.3L379.86,111.15L383.34,131.25L385.09,144.27L386.83,132.07L388.57,164.35L390.31,159.29L392.06,132.53L393.8,153.18L395.54,108.02L397.28,115.73L399.03,134.25L402.51,115.57L404.25,138.7L406,156.55L407.74,154.13L409.48,135.57L411.22,136.02L412.97,126.59L414.71,136.71L416.45,128.89L418.19,115.98L419.94,145.58L421.68,116.53L423.42,129.56L425.16,119.12L430.39,159.19L432.13,127.86L433.88,133.17L435.62,144.37L437.36,138.49L439.1,140.22L440.85,130.03L442.59,126.19L444.33,139.82L446.07,122.81L447.82,141.09L449.56,132.96L451.3,138.89L453.04,134.08L454.79,132.47L456.53,139.57L458.27,128.14L460.01,125.08L461.76,128.22L463.5,128.76L465.24,122.21L466.98,123.33L468.73,120.09L470.47,135.51L472.21,137.51L473.95,146.28L475.7,118.13L477.44,141.92L479.18,126.96L480.92,130.7L482.67,134.07L484.41,133.54L486.15,129.19L487.89,128.74L489.64,145.26L491.38,127.29L493.12,140.13L494.86,132.12L498.35,140.91L500.09,126.27L501.83,136.67L503.58,129.5L505.32,127.59L507.06,135.2L508.8,139.1L510.55,130.65L512.29,151.75L514.03,125.3L515.77,140.86L517.52,139.62L521,121.05" style="vector-effect: non-scaling-stroke; fill: none; stroke: rgb(44, 160, 44); stroke-opacity: 1; stroke-width: 2px; opacity: 1;"/></g><g class="points"/><g class="text"/></g></g></g><g class="overplot"/><path class="xlines-above crisp" d="M0,0" style="fill: none;"/><path class="ylines-above crisp" d="M0,0" style="fill: none;"/><g class="overlines-above"/><g class="xaxislayer-above"><g class="xtick"><text text-anchor="middle" x="0" y="403" transform="translate(60,0)" style="font-family: 'Open Sans', verdana, arial, sans-serif; font-size: 12px; fill: rgb(68, 68, 68); fill-opacity: 1; white-space: pre;">0</text></g><g class="xtick"><text text-anchor="middle" x="0" y="403" transform="translate(147.12,0)" style="font-family: 'Open Sans', verdana, arial, sans-serif; font-size: 12px; fill: rgb(68, 68, 68); fill-opacity: 1; white-space: pre;">50</text></g><g class="xtick"><text text-anchor="middle" x="0" y="403" transform="translate(234.25,0)" style="font-family: 'Open Sans', verdana, arial, sans-serif; font-size: 12px; fill: rgb(68, 68, 68); fill-opacity: 1; white-space: pre;">100</text></g><g class="xtick"><text text-anchor="middle" x="0" y="403" transform="translate(321.37,0)" style="font-family: 'Open Sans', verdana, arial, sans-serif; font-size: 12px; fill: rgb(68, 68, 68); fill-opacity: 1; white-space: pre;">150</text></g><g class="xtick"><text text-anchor="middle" x="0" y="403" transform="translate(408.49,0)" style="font-family: 'Open Sans', verdana, arial, sans-serif; font-size: 12px; fill: rgb(68, 68, 68); fill-opacity: 1; white-space: pre;">200</text></g><g class="xtick"><text text-anchor="middle" x="0" y="403" transform="translate(495.62,0)" style="font-family: 'Open Sans', verdana, arial, sans-serif; font-size: 12px; fill: rgb(68, 68, 68); fill-opacity: 1; white-space: pre;">250</text></g></g><g class="yaxislayer-above"><g class="ytick"><text text-anchor="end" x="59" y="4.199999999999999" transform="translate(0,367.52)" style="font-family: 'Open Sans', verdana, arial, sans-serif; font-size: 12px; fill: rgb(68, 68, 68); fill-opacity: 1; white-space: pre;">0.35</text></g><g class="ytick"><text text-anchor="end" x="59" y="4.199999999999999" transform="translate(0,319.33)" style="font-family: 'Open Sans', verdana, arial, sans-serif; font-size: 12px; fill: rgb(68, 68, 68); fill-opacity: 1; white-space: pre;">0.4</text></g><g class="ytick"><text text-anchor="end" x="59" y="4.199999999999999" transform="translate(0,271.14)" style="font-family: 'Open Sans', verdana, arial, sans-serif; font-size: 12px; fill: rgb(68, 68, 68); fill-opacity: 1; white-space: pre;">0.45</text></g><g class="ytick"><text text-anchor="end" x="59" y="4.199999999999999" transform="translate(0,222.95)" style="font-family: 'Open Sans', verdana, arial, sans-serif; font-size: 12px; fill: rgb(68, 68, 68); fill-opacity: 1; white-space: pre;">0.5</text></g><g class="ytick"><text text-anchor="end" x="59" y="4.199999999999999" transform="translate(0,174.76)" style="font-family: 'Open Sans', verdana, arial, sans-serif; font-size: 12px; fill: rgb(68, 68, 68); fill-opacity: 1; white-space: pre;">0.55</text></g><g class="ytick"><text text-anchor="end" x="59" y="4.199999999999999" transform="translate(0,126.57)" style="font-family: 'Open Sans', verdana, arial, sans-serif; font-size: 12px; fill: rgb(68, 68, 68); fill-opacity: 1; white-space: pre;">0.6</text></g><g class="ytick"><text text-anchor="end" x="59" y="4.199999999999999" transform="translate(0,78.38)" style="font-family: 'Open Sans', verdana, arial, sans-serif; font-size: 12px; fill: rgb(68, 68, 68); fill-opacity: 1; white-space: pre;">0.65</text></g></g><g class="overaxes-above"/></g></g><g class="polarlayer"/><g class="ternarylayer"/><g class="geolayer"/><g class="funnelarealayer"/><g class="pielayer"/><g class="treemaplayer"/><g class="sunburstlayer"/><g class="glimages"/><defs id="topdefs-7e9b4a"><g class="clips"/><clipPath id="legend7e9b4a"><rect width="97" height="67" x="0" y="0"/></clipPath></defs><g class="layer-above"><g class="imagelayer"/><g class="shapelayer"/></g><g class="infolayer"><g class="legend" pointer-events="all" transform="translate(591.42, 60)"><rect class="bg" shape-rendering="crispEdges" width="97" height="67" x="0" y="0" style="stroke: rgb(68, 68, 68); stroke-opacity: 1; fill: rgb(255, 255, 255); fill-opacity: 1; stroke-width: 0px;"/><g class="scrollbox" transform="translate(0, 0)" clip-path="url('#legend7e9b4a')"><g class="groups"><g class="traces" transform="translate(0, 14.5)" style="opacity: 1;"><text class="legendtext user-select-none" text-anchor="start" x="40" y="4.680000000000001" style="font-family: 'Open Sans', verdana, arial, sans-serif; font-size: 12px; fill: rgb(68, 68, 68); fill-opacity: 1; white-space: pre;">train</text><g class="layers" style="opacity: 1;"><g class="legendfill"/><g class="legendlines"><path class="js-line" d="M5,0h30" style="fill: none; stroke: rgb(31, 119, 180); stroke-opacity: 1; stroke-width: 2px;"/></g><g class="legendsymbols"><g class="legendpoints"/></g></g><rect class="legendtoggle" pointer-events="all" x="0" y="-9.5" width="91.640625" height="19" style="cursor: pointer; fill: rgb(0, 0, 0); fill-opacity: 0;"/></g><g class="traces" transform="translate(0, 33.5)" style="opacity: 1;"><text class="legendtext user-select-none" text-anchor="start" x="40" y="4.680000000000001" style="font-family: 'Open Sans', verdana, arial, sans-serif; font-size: 12px; fill: rgb(68, 68, 68); fill-opacity: 1; white-space: pre;">validation</text><g class="layers" style="opacity: 1;"><g class="legendfill"/><g class="legendlines"><path class="js-line" d="M5,0h30" style="fill: none; stroke: rgb(255, 127, 14); stroke-opacity: 1; stroke-width: 2px;"/></g><g class="legendsymbols"><g class="legendpoints"/></g></g><rect class="legendtoggle" pointer-events="all" x="0" y="-9.5" width="91.640625" height="19" style="cursor: pointer; fill: rgb(0, 0, 0); fill-opacity: 0;"/></g><g class="traces" transform="translate(0, 52.5)" style="opacity: 1;"><text class="legendtext user-select-none" text-anchor="start" x="40" y="4.680000000000001" style="font-family: 'Open Sans', verdana, arial, sans-serif; font-size: 12px; fill: rgb(68, 68, 68); fill-opacity: 1; white-space: pre;">test</text><g class="layers" style="opacity: 1;"><g class="legendfill"/><g class="legendlines"><path class="js-line" d="M5,0h30" style="fill: none; stroke: rgb(44, 160, 44); stroke-opacity: 1; stroke-width: 2px;"/></g><g class="legendsymbols"><g class="legendpoints"/></g></g><rect class="legendtoggle" pointer-events="all" x="0" y="-9.5" width="91.640625" height="19" style="cursor: pointer; fill: rgb(0, 0, 0); fill-opacity: 0;"/></g></g></g><rect class="scrollbar" rx="20" ry="3" width="0" height="0" x="0" y="0" style="fill: rgb(128, 139, 164); fill-opacity: 1;"/></g><g class="g-gtitle"><text class="gtitle" x="350" y="30" text-anchor="middle" dy="0em" style="font-family: 'Open Sans', verdana, arial, sans-serif; font-size: 17px; fill: rgb(68, 68, 68); opacity: 1; font-weight: normal; white-space: pre;">ftl_tmax_unet_pct_multi_att_dsv Seg_Loss over time</text></g><g class="g-xtitle"><text class="xtitle" x="320.5" y="442" text-anchor="middle" style="font-family: 'Open Sans', verdana, arial, sans-serif; font-size: 14px; fill: rgb(68, 68, 68); opacity: 1; font-weight: normal; white-space: pre;">Epochs</text></g><g class="g-ytitle"><text class="ytitle" transform="rotate(-90,22,225)" x="22" y="225" text-anchor="middle" style="font-family: 'Open Sans', verdana, arial, sans-serif; font-size: 14px; fill: rgb(68, 68, 68); opacity: 1; font-weight: normal; white-space: pre;">Seg_Loss</text></g></g></svg>