<svg class="main-svg" xmlns="http://www.w3.org/2000/svg" xmlns:xlink="http://www.w3.org/1999/xlink" width="700" height="450" style="" viewBox="0 0 700 450"><rect x="0" y="0" width="700" height="450" style="fill: rgb(255, 255, 255); fill-opacity: 1;"/><defs id="defs-c2d3d1"><g class="clips"><clipPath id="clipc2d3d1xyplot" class="plotclip"><rect width="521" height="330"/></clipPath><clipPath class="axesclip" id="clipc2d3d1x"><rect x="60" y="0" width="521" height="450"/></clipPath><clipPath class="axesclip" id="clipc2d3d1y"><rect x="0" y="60" width="700" height="330"/></clipPath><clipPath class="axesclip" id="clipc2d3d1xy"><rect x="60" y="60" width="521" height="330"/></clipPath></g><g class="gradients"/></defs><g class="bglayer"/><g class="layer-below"><g class="imagelayer"/><g class="shapelayer"/></g><g class="cartesianlayer"><g class="subplot xy"><g class="layer-subplot"><g class="shapelayer"/><g class="imagelayer"/></g><g class="gridlayer"><g class="x"><path class="xgrid crisp" transform="translate(147.12,0)" d="M0,60v330" style="stroke: rgb(238, 238, 238); stroke-opacity: 1; stroke-width: 1px;"/><path class="xgrid crisp" transform="translate(234.25,0)" d="M0,60v330" style="stroke: rgb(238, 238, 238); stroke-opacity: 1; stroke-width: 1px;"/><path class="xgrid crisp" transform="translate(321.37,0)" d="M0,60v330" style="stroke: rgb(238, 238, 238); stroke-opacity: 1; stroke-width: 1px;"/><path class="xgrid crisp" transform="translate(408.49,0)" d="M0,60v330" style="stroke: rgb(238, 238, 238); stroke-opacity: 1; stroke-width: 1px;"/><path class="xgrid crisp" transform="translate(495.62,0)" d="M0,60v330" style="stroke: rgb(238, 238, 238); stroke-opacity: 1; stroke-width: 1px;"/></g><g class="y"><path class="ygrid crisp" transform="translate(0,321.73)" d="M60,0h521" style="stroke: rgb(238, 238, 238); stroke-opacity: 1; stroke-width: 1px;"/><path class="ygrid crisp" transform="translate(0,267.43)" d="M60,0h521" style="stroke: rgb(238, 238, 238); stroke-opacity: 1; stroke-width: 1px;"/><path class="ygrid crisp" transform="translate(0,213.12)" d="M60,0h521" style="stroke: rgb(238, 238, 238); stroke-opacity: 1; stroke-width: 1px;"/><path class="ygrid crisp" transform="translate(0,158.82)" d="M60,0h521" style="stroke: rgb(238, 238, 238); stroke-opacity: 1; stroke-width: 1px;"/><path class="ygrid crisp" transform="translate(0,104.50999999999999)" d="M60,0h521" style="stroke: rgb(238, 238, 238); stroke-opacity: 1; stroke-width: 1px;"/></g></g><g class="zerolinelayer"><path class="xzl zl crisp" transform="translate(60,0)" d="M0,60v330" style="stroke: rgb(68, 68, 68); stroke-opacity: 1; stroke-width: 1px;"/><path class="yzl zl crisp" transform="translate(0,376.04)" d="M60,0h521" style="stroke: rgb(68, 68, 68); stroke-opacity: 1; stroke-width: 1px;"/></g><path class="xlines-below"/><path class="ylines-below"/><g class="overlines-below"/><g class="xaxislayer-below"/><g class="yaxislayer-below"/><g class="overaxes-below"/><g class="plot" transform="translate(60, 60)" clip-path="url('#clipc2d3d1xyplot')"><g class="scatterlayer mlayer"><g class="trace scatter traceae9a48" style="stroke-miterlimit: 2; opacity: 1;"><g class="fills"/><g class="errorbars"/><g class="lines"><path class="js-line" d="M0,313.5L1.74,311.06L3.48,307.06L5.23,302.09L6.97,293.05L8.71,283.94L10.45,269.44L13.94,232.57L15.68,223.35L20.91,198.59L22.65,191.37L24.39,185.03L26.14,183.99L33.11,165.42L34.85,157.74L36.59,156.26L38.33,149.94L40.08,145.59L41.82,144.75L45.3,141.4L47.05,134.27L48.79,130.11L50.53,130.58L52.27,135.96L54.02,127.81L55.76,125.68L57.5,122.11L59.24,122.16L60.99,116.6L62.73,115.24L64.47,116.05L66.21,108.67L67.96,114.17L69.7,108.04L71.44,107.55L73.18,110.35L74.93,103.68L78.41,104.38L80.15,103.89L81.9,101.06L83.64,95.64L85.38,97.38L87.12,93.84L92.35,99.28L94.09,90.8L95.84,90.93L97.58,87.23L99.32,83.44L101.06,89.04L102.81,83.05L104.55,84.6L106.29,87.35L108.03,76.19L109.78,80.11L111.52,78.83L113.26,75.47L115,76.38L118.49,78.37L120.23,78.74L121.97,75.41L123.72,74.82L125.46,75.75L127.2,72.25L128.94,72.5L130.69,68.88L132.43,70.3L134.17,65.85L135.91,69.07L137.66,68.1L141.14,62.84L142.88,62.92L146.37,60.27L148.11,65.2L149.85,62.78L151.6,62.1L153.34,61.66L155.08,64.45L156.82,59.03L158.57,58.29L160.31,59.53L162.05,56.96L165.54,55.42L167.28,52.25L169.02,56.12L170.76,63.86L174.25,56.09L175.99,53.86L177.73,53.52L179.47,56.72L181.22,56.73L182.96,60.71L186.44,51.45L188.19,57.23L189.93,53.9L191.67,63.93L193.41,57.11L195.16,66.01L198.64,56.41L200.38,60.19L202.13,56.68L203.87,63.28L209.1,54.84L210.84,55.29L212.58,52L214.32,66.61L216.07,57.54L217.81,56.1L219.55,55.77L221.29,58.4L223.04,55.01L224.78,53.76L226.52,58.08L228.26,57.03L230.01,54.23L231.75,60.49L233.49,63.88L235.23,48.51L236.98,47.4L238.72,47.91L240.46,46.22L242.2,53.59L243.95,53.18L245.69,49.84L247.43,64.47L249.17,52.21L250.92,52.63L252.66,66.68L254.4,64.1L256.14,58.25L257.89,47.53L259.63,63.64L261.37,60.49L263.11,50.96L264.86,65.14L266.6,63.28L268.34,63.44L270.08,57.87L271.83,58.87L273.57,56.77L275.31,56.56L277.05,63.22L278.8,62.05L280.54,41.46L282.28,56.12L284.02,58.43L285.77,66.02L287.51,45.57L292.74,57.69L294.48,51.45L296.22,42.35L297.96,52.03L299.71,51.52L301.45,62.4L304.93,37.24L306.68,57.59L308.42,49.04L310.16,60.03L311.9,45.26L313.65,57.76L315.39,50.83L317.13,49.97L318.87,56.76L320.62,38.68L324.1,70.22L325.84,64.77L329.33,51.83L331.07,46.6L332.81,50.84L334.56,51.93L336.3,50.15L338.04,59.46L339.78,44.87L341.53,57.55L343.27,83.9L345.01,75.49L346.75,48.7L348.49,68.02L351.98,51.16L353.72,61.48L355.46,50.99L357.21,64.06L358.95,54.43L360.69,73.22L362.43,49.52L364.18,49.41L367.66,59.05L369.4,53.32L371.15,53.58L372.89,41.94L374.63,51.48L376.37,55.84L378.12,52.97L379.86,57.01L381.6,61.91L383.34,56.28L385.09,52.69L386.83,55.01L390.31,35.7L392.06,49.26L393.8,55.8L395.54,86.33L397.28,66.2L399.03,61.98L400.77,54.36L402.51,66.1L406,48.08L407.74,52.13L411.22,77.27L412.97,63.73L414.71,63.47L416.45,57.4L418.19,79.93L419.94,48.96L421.68,73.01L423.42,53.81L425.16,52.75L426.91,59.18L428.65,50.45L430.39,52.63L433.88,59.09L435.62,52.31L437.36,56.45L439.1,57.7L440.85,62.77L442.59,59.39L444.33,53.81L446.07,63.06L447.82,51.09L449.56,55.11L451.3,50.14L453.04,57.49L454.79,46.43L456.53,54.63L458.27,60.83L460.01,52.66L463.5,60.07L465.24,65.74L466.98,55.73L468.73,58L470.47,48.76L472.21,55.88L473.95,46.72L475.7,65.4L477.44,49.8L479.18,55.43L480.92,54.76L482.67,50.19L486.15,60.35L487.89,51.42L489.64,50.99L491.38,61.27L493.12,51.65L494.86,52.92L496.61,53.86L498.35,57.03L500.09,64.97L501.83,51.78L503.58,49.62L505.32,54.39L507.06,47.14L508.8,47.48L510.55,56.46L512.29,47.62L514.03,58.41L515.77,48.84L517.52,54.9L519.26,51.75L521,65.13" style="vector-effect: non-scaling-stroke; fill: none; stroke: rgb(31, 119, 180); stroke-opacity: 1; stroke-width: 2px; opacity: 1;"/></g><g class="points"/><g class="text"/></g><g class="trace scatter trace4bf418" style="stroke-miterlimit: 2; opacity: 1;"><g class="fills"/><g class="errorbars"/><g class="lines"><path class="js-line" d="M0,310.55L5.23,287.01L6.97,271.6L8.71,258.57L10.45,235.91L12.2,203.94L13.94,187.66L19.17,155.98L20.91,149.14L24.39,137.93L26.14,135L33.11,119.57L34.85,113.64L36.59,112.11L38.33,107.92L41.82,103.26L43.56,102.14L45.3,100.32L47.05,96.22L50.53,93.22L52.27,94.48L54.02,89.92L55.76,88.79L59.24,85.04L60.99,82.59L62.73,80.85L64.47,81.37L66.21,78.6L67.96,79.11L69.7,75.64L71.44,75.58L73.18,76.07L74.93,72.21L76.67,72.48L78.41,70.8L80.15,69.13L81.9,69.01L83.64,64.51L85.38,64.57L87.12,62.69L88.87,64.32L90.61,65.53L92.35,65L94.09,60.59L95.84,60.31L97.58,58.2L99.32,57.51L101.06,61.12L102.81,56.83L104.55,55.71L106.29,56.98L108.03,51.45L109.78,52.24L113.26,47.78L115,49.52L120.23,47.43L121.97,43.86L123.72,44.56L125.46,41.53L127.2,40.19L128.94,42.63L130.69,41.97L132.43,43.98L135.91,39.82L137.66,40.14L141.14,34.52L142.88,33.44L144.63,38.41L146.37,32.85L149.85,25.95L151.6,31.36L153.34,26.94L155.08,28.88L156.82,25.64L158.57,27.87L160.31,23.43L162.05,31.49L163.79,34.15L165.54,22.56L167.28,38.44L169.02,22.88L170.76,22.12L172.51,28.51L174.25,41.82L175.99,37.48L177.73,28.4L179.47,24.01L181.22,43.71L182.96,41.63L186.44,16.5L188.19,20.68L189.93,45.17L191.67,40.92L193.41,39.03L195.16,52.62L196.9,72.29L198.64,59.25L200.38,49.25L202.13,28.09L203.87,85.14L205.61,64.64L207.35,27.63L209.1,60.04L210.84,70.36L212.58,71.05L214.32,42.39L216.07,56.34L217.81,50.02L219.55,50.28L221.29,99.28L223.04,45.59L224.78,82.18L226.52,68.76L228.26,56.14L230.01,55L231.75,53.84L233.49,87.23L235.23,87.43L236.98,52.57L240.46,78.92L242.2,76.45L243.95,59.29L245.69,34.39L247.43,24.84L249.17,81.27L250.92,91.33L252.66,67.84L254.4,122.19L256.14,94.41L257.89,87.82L259.63,61.92L261.37,129.34L263.11,109.49L266.6,131.86L268.34,113.21L270.08,88.58L271.83,99.55L273.57,52.03L275.31,85.71L277.05,133.9L278.8,32.28L280.54,25.4L282.28,116.5L284.02,97.02L285.77,105.73L287.51,72.12L289.25,63.21L290.99,53.97L292.74,75.85L294.48,64.19L296.22,45.31L297.96,94.2L299.71,75.92L301.45,107.01L303.19,102.99L304.93,82.99L306.68,77.64L308.42,125.91L310.16,96.33L311.9,111.25L313.65,160.38L315.39,126.59L317.13,128.61L318.87,123.98L320.62,102.49L322.36,149.17L324.1,158.52L325.84,121.38L327.59,149.82L329.33,71.88L331.07,107.94L332.81,119.34L334.56,57.69L336.3,53.27L338.04,149.01L339.78,110.39L341.53,119.29L343.27,188.8L345.01,176.61L346.75,50.35L348.49,157.73L351.98,81.74L353.72,26.78L355.46,57.68L357.21,162.38L358.95,65.58L360.69,171.11L362.43,37.05L364.18,135.1L365.92,93.85L367.66,165.92L369.4,146.59L371.15,86.07L372.89,64L374.63,149.78L376.37,168.06L378.12,133.57L379.86,197.63L381.6,169.95L383.34,149.16L385.09,104.33L386.83,134.52L388.57,74.31L390.31,68.41L392.06,124.53L393.8,92.34L395.54,203.56L397.28,187.7L399.03,141.58L400.77,153.85L402.51,178.51L406,53.42L407.74,81.37L411.22,149.44L412.97,152.09L414.71,127.15L416.45,151.35L418.19,178.32L419.94,114.38L421.68,187.5L423.42,149.44L425.16,174.61L426.91,152.31L430.39,80.42L432.13,151.64L435.62,112.88L437.36,130.69L439.1,123.3L440.85,142.61L442.59,158.23L444.33,120.65L446.07,166.38L447.82,127.93L449.56,144.55L451.3,130.88L453.04,139.19L454.79,140.56L456.53,128.98L458.27,158.12L460.01,163.11L461.76,155.95L463.5,157.94L465.24,163.88L466.98,167.54L468.73,174.44L470.47,116.87L472.21,130.52L473.95,112.53L475.7,177.43L477.44,107.13L479.18,160.54L480.92,138.04L482.67,140.04L484.41,133.51L486.15,151.65L487.89,152.01L489.64,110.63L491.38,155.54L493.12,126.58L494.86,140.29L496.61,116.55L498.35,109.76L500.09,156.04L501.83,111.38L503.58,150.07L505.32,158.16L507.06,135.21L508.8,126.2L510.55,145.33L512.29,95.52L514.03,162.02L515.77,121.52L517.52,125.51L521,172.76" style="vector-effect: non-scaling-stroke; fill: none; stroke: rgb(255, 127, 14); stroke-opacity: 1; stroke-width: 2px; opacity: 1;"/></g><g class="points"/><g class="text"/></g></g></g><g class="overplot"/><path class="xlines-above crisp" d="M0,0" style="fill: none;"/><path class="ylines-above crisp" d="M0,0" style="fill: none;"/><g class="overlines-above"/><g class="xaxislayer-above"><g class="xtick"><text text-anchor="middle" x="0" y="403" transform="translate(60,0)" style="font-family: 'Open Sans', verdana, arial, sans-serif; font-size: 12px; fill: rgb(68, 68, 68); fill-opacity: 1; white-space: pre;">0</text></g><g class="xtick"><text text-anchor="middle" x="0" y="403" transform="translate(147.12,0)" style="font-family: 'Open Sans', verdana, arial, sans-serif; font-size: 12px; fill: rgb(68, 68, 68); fill-opacity: 1; white-space: pre;">50</text></g><g class="xtick"><text text-anchor="middle" x="0" y="403" transform="translate(234.25,0)" style="font-family: 'Open Sans', verdana, arial, sans-serif; font-size: 12px; fill: rgb(68, 68, 68); fill-opacity: 1; white-space: pre;">100</text></g><g class="xtick"><text text-anchor="middle" x="0" y="403" transform="translate(321.37,0)" style="font-family: 'Open Sans', verdana, arial, sans-serif; font-size: 12px; fill: rgb(68, 68, 68); fill-opacity: 1; white-space: pre;">150</text></g><g class="xtick"><text text-anchor="middle" x="0" y="403" transform="translate(408.49,0)" style="font-family: 'Open Sans', verdana, arial, sans-serif; font-size: 12px; fill: rgb(68, 68, 68); fill-opacity: 1; white-space: pre;">200</text></g><g class="xtick"><text text-anchor="middle" x="0" y="403" transform="translate(495.62,0)" style="font-family: 'Open Sans', verdana, arial, sans-serif; font-size: 12px; fill: rgb(68, 68, 68); fill-opacity: 1; white-space: pre;">250</text></g></g><g class="yaxislayer-above"><g class="ytick"><text text-anchor="end" x="59" y="4.199999999999999" transform="translate(0,376.04)" style="font-family: 'Open Sans', verdana, arial, sans-serif; font-size: 12px; fill: rgb(68, 68, 68); fill-opacity: 1; white-space: pre;">0</text></g><g class="ytick"><text text-anchor="end" x="59" y="4.199999999999999" transform="translate(0,321.73)" style="font-family: 'Open Sans', verdana, arial, sans-serif; font-size: 12px; fill: rgb(68, 68, 68); fill-opacity: 1; white-space: pre;">0.05</text></g><g class="ytick"><text text-anchor="end" x="59" y="4.199999999999999" transform="translate(0,267.43)" style="font-family: 'Open Sans', verdana, arial, sans-serif; font-size: 12px; fill: rgb(68, 68, 68); fill-opacity: 1; white-space: pre;">0.1</text></g><g class="ytick"><text text-anchor="end" x="59" y="4.199999999999999" transform="translate(0,213.12)" style="font-family: 'Open Sans', verdana, arial, sans-serif; font-size: 12px; fill: rgb(68, 68, 68); fill-opacity: 1; white-space: pre;">0.15</text></g><g class="ytick"><text text-anchor="end" x="59" y="4.199999999999999" transform="translate(0,158.82)" style="font-family: 'Open Sans', verdana, arial, sans-serif; font-size: 12px; fill: rgb(68, 68, 68); fill-opacity: 1; white-space: pre;">0.2</text></g><g class="ytick"><text text-anchor="end" x="59" y="4.199999999999999" transform="translate(0,104.50999999999999)" style="font-family: 'Open Sans', verdana, arial, sans-serif; font-size: 12px; fill: rgb(68, 68, 68); fill-opacity: 1; white-space: pre;">0.25</text></g></g><g class="overaxes-above"/></g></g><g class="polarlayer"/><g class="ternarylayer"/><g class="geolayer"/><g class="funnelarealayer"/><g class="pielayer"/><g class="treemaplayer"/><g class="sunburstlayer"/><g class="glimages"/><defs id="topdefs-c2d3d1"><g class="clips"/><clipPath id="legendc2d3d1"><rect width="97" height="48" x="0" y="0"/></clipPath></defs><g class="layer-above"><g class="imagelayer"/><g class="shapelayer"/></g><g class="infolayer"><g class="legend" pointer-events="all" transform="translate(591.42, 60)"><rect class="bg" shape-rendering="crispEdges" width="97" height="48" x="0" y="0" style="stroke: rgb(68, 68, 68); stroke-opacity: 1; fill: rgb(255, 255, 255); fill-opacity: 1; stroke-width: 0px;"/><g class="scrollbox" transform="translate(0, 0)" clip-path="url('#legendc2d3d1')"><g class="groups"><g class="traces" transform="translate(0, 14.5)" style="opacity: 1;"><text class="legendtext user-select-none" text-anchor="start" x="40" y="4.680000000000001" style="font-family: 'Open Sans', verdana, arial, sans-serif; font-size: 12px; fill: rgb(68, 68, 68); fill-opacity: 1; white-space: pre;">validation</text><g class="layers" style="opacity: 1;"><g class="legendfill"/><g class="legendlines"><path class="js-line" d="M5,0h30" style="fill: none; stroke: rgb(31, 119, 180); stroke-opacity: 1; stroke-width: 2px;"/></g><g class="legendsymbols"><g class="legendpoints"/></g></g><rect class="legendtoggle" pointer-events="all" x="0" y="-9.5" width="91.640625" height="19" style="cursor: pointer; fill: rgb(0, 0, 0); fill-opacity: 0;"/></g><g class="traces" transform="translate(0, 33.5)" style="opacity: 1;"><text class="legendtext user-select-none" text-anchor="start" x="40" y="4.680000000000001" style="font-family: 'Open Sans', verdana, arial, sans-serif; font-size: 12px; fill: rgb(68, 68, 68); fill-opacity: 1; white-space: pre;">test</text><g class="layers" style="opacity: 1;"><g class="legendfill"/><g class="legendlines"><path class="js-line" d="M5,0h30" style="fill: none; stroke: rgb(255, 127, 14); stroke-opacity: 1; stroke-width: 2px;"/></g><g class="legendsymbols"><g class="legendpoints"/></g></g><rect class="legendtoggle" pointer-events="all" x="0" y="-9.5" width="91.640625" height="19" style="cursor: pointer; fill: rgb(0, 0, 0); fill-opacity: 0;"/></g></g></g><rect class="scrollbar" rx="20" ry="3" width="0" height="0" x="0" y="0" style="fill: rgb(128, 139, 164); fill-opacity: 1;"/></g><g class="g-gtitle"><text class="gtitle" x="350" y="30" text-anchor="middle" dy="0em" style="font-family: 'Open Sans', verdana, arial, sans-serif; font-size: 17px; fill: rgb(68, 68, 68); opacity: 1; font-weight: normal; white-space: pre;">ftl_tmax_unet_pct_multi_att_dsv Overall_Dice over time</text></g><g class="g-xtitle"><text class="xtitle" x="320.5" y="442" text-anchor="middle" style="font-family: 'Open Sans', verdana, arial, sans-serif; font-size: 14px; fill: rgb(68, 68, 68); opacity: 1; font-weight: normal; white-space: pre;">Epochs</text></g><g class="g-ytitle"><text class="ytitle" transform="rotate(-90,22,225)" x="22" y="225" text-anchor="middle" style="font-family: 'Open Sans', verdana, arial, sans-serif; font-size: 14px; fill: rgb(68, 68, 68); opacity: 1; font-weight: normal; white-space: pre;">Overall_Dice</text></g></g></svg>